<svg width="968" height="288" viewBox="0 0 968 288" fill="none" xmlns="http://www.w3.org/2000/svg">
<path d="M19.9502 265.629C6.65007 252.881 0 236.288 0 215.849H39.8367C39.8367 228.597 45.2828 237.888 56.1751 243.724C60.7164 245.961 65.5411 247.569 70.5163 248.504C74.8544 249.302 79.2567 249.701 83.6677 249.694C110.183 249.694 123.455 241.068 123.483 223.816C123.483 209.213 108.356 200.58 78.1012 197.917C31.3594 193.668 7.98857 174.419 7.98857 140.17C7.7863 132.716 9.09158 125.299 11.8261 118.362C14.5606 111.425 18.6681 105.112 23.902 99.8019C36.6498 86.8134 55.2331 80.312 79.6521 80.2979C104.624 80.2979 123.88 87.2029 137.421 101.013C149.375 112.953 155.36 128.619 155.374 148.01H115.516C115.516 128.095 103.561 118.137 79.6521 118.137C58.4059 118.137 47.7828 125.446 47.7828 140.064C47.7828 152.811 59.0645 160.106 81.628 161.947C109.503 164.61 129.814 170.46 142.562 179.497C156.372 189.312 163.277 204.05 163.277 223.71C163.439 231.733 161.929 239.702 158.841 247.11C155.754 254.517 151.158 261.2 145.346 266.734C131.281 280.544 110.707 287.449 83.6252 287.449C56.0334 287.519 34.8084 280.246 19.9502 265.629Z" fill="#1A0047"/>
<path d="M454.138 84.3975L398.388 283.56H354.557L310.726 146.543L266.895 283.56H223.064L167.314 84.3975H207.151L246.223 223.815L290.84 84.3975H330.655L375.272 223.815L414.344 84.3975H454.138Z" fill="#1A0047"/>
<path d="M497.952 0.735079L466.087 32.5996L497.952 64.4642L529.816 32.5996L497.952 0.735079Z" fill="#B063FF"/>
<path d="M517.877 84.3975H477.998V283.56H517.877V84.3975Z" fill="#1A0047"/>
<path d="M667.26 80.4033C692.755 80.4033 713.456 88.9018 729.362 105.899C745.07 122.627 752.917 144.007 752.903 170.041V283.56H713.024V174.014C713.024 156.762 707.989 143.221 697.918 133.391C688.06 123.299 674.547 118.243 657.274 118.243C640.001 118.243 626.467 123.299 616.651 133.413C606.835 143.526 601.503 156.784 601.503 174.035V283.581H561.666V84.3976H601.503V109.893C617.72 90.2474 639.64 80.4175 667.26 80.4033Z" fill="#1A0047"/>
<path d="M792.719 4.72461H832.555V283.56H792.719V4.72461ZM968 84.398L888.348 183.979L968 283.56H922.214L842.498 183.979L922.214 84.398H968Z" fill="#1A0047"/>
</svg>
