<svg width="68" height="68" viewBox="0 0 68 68" fill="none" xmlns="http://www.w3.org/2000/svg">
<path d="M38.258 9.2079C37.3089 9.20436 36.5028 9.82355 36.2268 10.6813C36.2243 10.689 36.2231 10.6928 36.203 10.9134C36.1941 11.012 36.2075 11.3408 36.2246 11.4383C36.2626 11.6565 36.3003 11.7474 36.3758 11.9292C37.017 13.4749 37.3377 14.2477 37.1982 14.8672C37.0893 15.3502 36.8052 15.7758 36.4007 16.0614C35.882 16.4277 35.0453 16.4277 33.3719 16.4277H28.9616C27.2881 16.4277 26.4514 16.4277 25.9327 16.0614C25.5282 15.7758 25.2441 15.3502 25.1353 14.8672C24.9957 14.2477 25.3164 13.4749 25.9577 11.9292C26.0331 11.7474 26.0708 11.6565 26.1089 11.4383C26.1259 11.3408 26.1394 11.012 26.1304 10.9134C26.1103 10.6928 26.1091 10.689 26.1066 10.6813C25.8306 9.82355 25.0245 9.20436 24.0755 9.2079C20.3517 9.22178 17.3086 9.29065 14.8505 9.6994C12.3402 10.1168 10.2366 10.9184 8.52645 12.5386C6.59379 14.3695 5.74211 16.6962 5.34253 19.5119C4.95827 22.2195 4.95832 25.6655 4.95838 29.9543V43.7047C4.95832 47.9935 4.95827 51.4396 5.34253 54.1472C5.74211 56.9629 6.59379 59.2896 8.52645 61.1206C10.4429 62.9361 12.8511 63.7222 15.767 64.0936C18.6017 64.4546 22.2191 64.4546 26.7659 64.4546H35.5674C36.4298 64.4546 36.86 63.3421 36.29 62.695C33.542 59.575 31.875 55.4799 31.875 50.9954C31.875 41.2154 39.8033 33.2871 49.5834 33.2871C50.5779 33.2871 51.5534 33.3691 52.5032 33.5266C54.5497 33.8662 55.573 34.0359 56.0721 33.8504C56.586 33.6593 56.8376 33.446 57.1103 32.9702C57.375 32.5082 57.375 31.657 57.375 29.9545C57.3751 25.6656 57.3752 22.2196 56.9909 19.5119C56.5913 16.6962 55.7396 14.3695 53.807 12.5386C52.0968 10.9184 49.9933 10.1168 47.4829 9.6994C45.0248 9.29065 41.9817 9.22178 38.258 9.2079Z" fill="#C381ED" stroke="#1A0047" stroke-width="1.5"/>
<path d="M27.1341 25.5C22.8602 25.5 19.492 29.0424 19.492 33.2917C19.492 37.5409 22.8602 41.0833 27.1341 41.0833C28.6654 41.0833 30.0804 40.6286 31.266 39.8495C32.0215 38.8163 32.8863 37.8681 33.8432 37.0218C34.4392 35.909 34.7762 34.6357 34.7762 33.2917C34.7762 29.0424 31.4079 25.5 27.1341 25.5Z" fill="white"/>
<path d="M29.0077 44.0096C28.2667 45.962 27.8611 48.0795 27.8611 50.2917C27.8611 52.0128 28.1066 53.6767 28.5646 55.25H19.2707C16.9734 55.25 15.1111 53.3877 15.1111 51.0904C15.1111 50.0674 15.4896 48.9849 16.3348 48.1825C19.7196 44.9691 24.4599 43.5201 29.0077 44.0096Z" fill="white"/>
<circle cx="49.5" cy="51.5" r="12.75" fill="white" stroke="#1A0047" stroke-width="1.5"/>
<path d="M51.7002 47.2549C52.7367 46.6969 54.0298 47.0856 54.5879 48.1221C55.1454 49.1584 54.7578 50.4507 53.7217 51.0088C52.8593 51.473 51.8413 52.6499 50.9385 54.0166C50.5189 54.6517 50.174 55.2494 49.9346 55.6885C49.8155 55.9069 49.6406 56.249 49.5801 56.3682C49.2396 57.0774 48.536 57.5442 47.75 57.5781C46.9632 57.6119 46.2211 57.2078 45.8213 56.5293C45.4322 55.8691 44.9837 55.4247 44.6475 55.1523C44.4796 55.0164 44.1846 54.8311 44.1846 54.8311C43.1433 54.3149 42.706 53.0565 43.208 52.0039C43.7149 50.9415 44.9873 50.4913 46.0498 50.998C46.4573 51.1925 46.9784 51.5573 47.29 51.8066C48.2304 50.3832 49.8306 48.2614 51.7002 47.2549Z" fill="#C381ED"/>
</svg>
