<svg width="24" height="25" viewBox="0 0 24 25" fill="none" xmlns="http://www.w3.org/2000/svg">
<path d="M5 9.44922H4.5C3.55719 9.44922 3.08579 9.44922 2.79289 9.74211C2.5 10.035 2.5 10.5064 2.5 11.4492V19.9492C2.5 20.892 2.5 21.3634 2.79289 21.6563C3.08579 21.9492 3.55719 21.9492 4.5 21.9492H5C5.94281 21.9492 6.41421 21.9492 6.70711 21.6563C7 21.3634 7 20.892 7 19.9492V11.4492C7 10.5064 7 10.035 6.70711 9.74211C6.41421 9.44922 5.94281 9.44922 5 9.44922Z" fill="#141B34"/>
<path d="M7 5.19922C7 6.44186 5.99264 7.44922 4.75 7.44922C3.50736 7.44922 2.5 6.44186 2.5 5.19922C2.5 3.95658 3.50736 2.94922 4.75 2.94922C5.99264 2.94922 7 3.95658 7 5.19922Z" fill="#141B34"/>
<path d="M11.826 9.44922H11C10.0572 9.44922 9.58579 9.44922 9.29289 9.74211C9 10.035 9 10.5064 9 11.4492V19.9492C9 20.892 9 21.3634 9.29289 21.6563C9.58579 21.9492 10.0572 21.9492 11 21.9492H11.5C12.4428 21.9492 12.9142 21.9492 13.2071 21.6563C13.5 21.3634 13.5 20.892 13.5 19.9492L13.5001 16.4493C13.5001 14.7925 14.0281 13.4493 15.5879 13.4493C16.3677 13.4493 17 14.1209 17 14.9493V19.4493C17 20.3921 17 20.8636 17.2929 21.1564C17.5857 21.4493 18.0572 21.4493 19 21.4493H19.4987C20.4413 21.4493 20.9126 21.4493 21.2055 21.1565C21.4984 20.8637 21.4985 20.3924 21.4987 19.4498L21.5001 13.9495C21.5001 11.4642 19.1364 9.44946 16.7968 9.44946C15.4649 9.44946 14.2767 10.1023 13.5001 11.1232C13.5 10.4932 13.5 10.1781 13.3632 9.94421C13.2765 9.79608 13.1531 9.67275 13.005 9.58608C12.7711 9.44922 12.4561 9.44922 11.826 9.44922Z" fill="#141B34"/>
</svg>
