<svg id="Layer_1" data-name="Layer 1" xmlns="http://www.w3.org/2000/svg" viewBox="0 0 634.55 190.1"><defs><style>.cls-1{fill:#b063ff;}.cls-2{fill:#1a0047;}</style></defs><polygon class="cls-1" points="140.68 42.14 151.97 0 94.07 27 82.78 69.14 140.68 42.14"/><polygon class="cls-1" points="85.76 57.99 28.21 84.83 16.91 126.97 74.47 100.13 85.76 57.99"/><polygon class="cls-1" points="11.29 147.96 0 190.1 57.55 163.26 68.84 121.12 11.29 147.96"/><polygon class="cls-1" points="77.16 90.13 65.86 132.27 123.77 105.27 135.06 63.13 77.16 90.13"/><path class="cls-2" d="M188.33,152.23q-9.39-9-9.39-23.43h18.75q0,9,7.69,13.12a26.25,26.25,0,0,0,6.75,2.25,33.93,33.93,0,0,0,6.19.56q18.72,0,18.74-12.18,0-10.31-21.36-12.19-33-3-33-27.18a26.06,26.06,0,0,1,7.49-19q9-9.17,26.24-9.18,17.63,0,27.19,9.75,8.44,8.43,8.45,22.12H233.31q0-14.06-16.88-14.06-15,0-15,10.32,0,9,15.93,10.3,19.68,1.88,28.68,8.26,9.75,6.93,9.75,20.81a27.2,27.2,0,0,1-8.44,20.25q-9.93,9.75-29.05,9.75Q198.82,162.55,188.33,152.23Z"/><path class="cls-2" d="M392.69,66.93l-26.24,93.74H345.82L325.19,96.18l-20.63,64.49H283.93L257.69,66.93h18.75l18.39,65.62,21-65.62h18.74l21,65.62,18.39-65.62Z"/><rect class="cls-1" x="402.7" y="31.95" width="21.21" height="21.21" transform="translate(90.97 304.71) rotate(-45)"/><rect class="cls-2" x="403.92" y="66.93" width="18.77" height="93.74"/><path class="cls-2" d="M493,65.05q18,0,29.23,12,11.09,11.81,11.08,30.19v53.43H514.54V109.11q0-12.18-7.11-19.12c-4.64-4.75-11-7.13-19.13-7.13S473.8,85.24,469.18,90s-7.13,11-7.13,19.12v51.56H443.3V66.93h18.75v12Q473.5,65.06,493,65.05Z"/><path class="cls-2" d="M552.05,29.43H570.8V160.67H552.05Zm82.5,37.5L597.06,113.8l37.49,46.87H613L575.48,113.8,613,66.93Z"/></svg>