<svg width="24" height="25" viewBox="0 0 24 25" fill="none" xmlns="http://www.w3.org/2000/svg">
<path d="M2 6.44922L8.91302 10.3662C11.4616 11.8102 12.5384 11.8102 15.087 10.3662L22 6.44922" stroke="#141B34" stroke-width="1.5" stroke-linejoin="round"/>
<path d="M2.01577 13.9248C2.08114 16.9904 2.11383 18.5231 3.24496 19.6586C4.37608 20.794 5.95033 20.8336 9.09883 20.9127C11.0393 20.9614 12.9607 20.9614 14.9012 20.9127C18.0497 20.8336 19.6239 20.794 20.7551 19.6586C21.8862 18.5231 21.9189 16.9904 21.9842 13.9248C22.0053 12.9392 22.0053 11.9593 21.9842 10.9736C21.9189 7.90808 21.8862 6.37531 20.7551 5.23988C19.6239 4.10445 18.0497 4.0649 14.9012 3.98579C12.9607 3.93703 11.0393 3.93703 9.09882 3.98578C5.95033 4.06488 4.37608 4.10443 3.24495 5.23987C2.11382 6.3753 2.08114 7.90806 2.01576 10.9736C1.99474 11.9593 1.99475 12.9392 2.01577 13.9248Z" stroke="#141B34" stroke-width="1.5" stroke-linejoin="round"/>
</svg>
