<svg width="72" height="72" viewBox="0 0 72 72" fill="none" xmlns="http://www.w3.org/2000/svg">
<path d="M37 23.75C48.2675 23.75 56.1254 23.9756 61.0264 24.1875C65.5994 24.3847 68.5859 26.8067 69.0166 30.2568C69.3405 32.8506 69.6377 36.6685 69.6377 41.5C69.6377 46.3287 69.3409 49.8106 69.0166 52.4072C68.5808 55.8986 65.5514 58.6173 61.0264 58.8125C56.1269 59.0244 48.2675 59.25 37 59.25C25.7325 59.25 17.8746 59.0245 12.9736 58.8125C8.35638 58.6134 4.7829 55.9909 4.35645 52.5752C4.03261 49.982 3.75 46.3321 3.75 41.5C3.75 36.6679 4.03261 33.018 4.35645 30.4248C4.78289 27.008 8.35626 24.3867 12.9736 24.1875C17.8731 23.9756 25.7325 23.75 37 23.75Z" fill="#C381ED" stroke="#1A0047" stroke-width="1.5"/>
<path d="M37.6488 30.5021C37.9536 30.8236 38.1248 31.2596 38.1248 31.7143V32.9097C38.4684 32.9557 38.8099 33.0175 39.1484 33.0949C40.3216 33.3669 41.5055 33.8514 42.3927 34.6023C42.5591 34.7433 42.6975 34.9175 42.8 35.1149C42.9026 35.3124 42.9673 35.5292 42.9904 35.753C43.0136 35.9768 42.9947 36.2032 42.9349 36.4194C42.8751 36.6355 42.7755 36.837 42.6418 37.0126C42.5082 37.1881 42.3431 37.3341 42.156 37.4423C41.9688 37.5505 41.7633 37.6188 41.5512 37.6432C41.1227 37.6925 40.6933 37.5602 40.3573 37.2754C39.9977 36.9703 39.3412 36.6503 38.453 36.4446C37.5671 36.2411 36.656 36.1894 35.7546 36.2914C34.8631 36.4011 34.1926 36.6674 33.7842 36.9966C33.4365 37.2766 33.2502 37.6103 33.2502 38.1429C33.2502 38.552 33.3369 38.7783 33.4203 38.9177C33.5102 39.0697 33.6662 39.2354 33.9554 39.4091C34.6042 39.8011 35.5477 40.0309 36.84 40.3234L36.9624 40.3509L36.9693 40.3524C38.0959 40.607 39.5223 40.9294 40.6574 41.6137C41.2813 41.9897 41.8879 42.5131 42.332 43.2571C42.7816 44.0126 42.9993 44.888 42.9993 45.8571C42.9993 47.5394 42.2779 48.8514 41.1871 49.7291C40.2956 50.4469 39.2026 50.8457 38.1248 51.0389V52.2857C38.1248 52.7404 37.9536 53.1764 37.6488 53.4979C37.3441 53.8194 36.9308 54 36.4999 54C36.069 54 35.6557 53.8194 35.351 53.4979C35.0462 53.1764 34.875 52.7404 34.875 52.2857V51.0903C34.5255 51.043 34.1843 50.9813 33.8514 50.9051C32.6782 50.6331 31.4943 50.1486 30.6071 49.3977C30.2711 49.1128 30.0562 48.6987 30.0095 48.2466C29.9629 47.7945 30.0884 47.3413 30.3585 46.9869C30.6285 46.6324 31.021 46.4056 31.4496 46.3564C31.8781 46.3072 32.3076 46.4397 32.6436 46.7246C33.0021 47.0297 33.6586 47.3497 34.5479 47.5554C35.4334 47.7588 36.3441 47.8105 37.2452 47.7086C38.1367 47.5989 38.8072 47.3326 39.2156 47.0034C39.5633 46.7234 39.7496 46.3897 39.7496 45.8571C39.7496 45.448 39.6629 45.2217 39.5795 45.0823C39.4896 44.9303 39.3336 44.7646 39.0455 44.5909C38.3956 44.1989 37.4531 43.968 36.1598 43.6766L36.0374 43.6491L36.0305 43.6476C34.9039 43.393 33.4775 43.0706 32.3424 42.3863C31.7174 42.0103 31.1119 41.4869 30.6688 40.7417C30.2193 39.9874 30.0005 39.112 30.0005 38.1429C30.0005 36.4606 30.7219 35.1486 31.8127 34.2709C32.7042 33.5531 33.7972 33.1554 34.875 32.9611V31.7143C34.875 31.2596 35.0462 30.8236 35.351 30.5021C35.6557 30.1806 36.069 30 36.4999 30C36.9308 30 37.3441 30.1806 37.6488 30.5021Z" fill="white"/>
<path d="M36.1855 0.754883C37.1126 0.800774 37.992 1.18923 38.6514 1.84863C39.3546 2.55189 39.75 3.50544 39.75 4.5V13.5C39.75 14.4946 39.3546 15.4481 38.6514 16.1514C37.9481 16.8546 36.9946 17.25 36 17.25C35.0054 17.25 34.0519 16.8546 33.3486 16.1514C32.6454 15.4481 32.25 14.4946 32.25 13.5V4.5C32.25 3.50544 32.6454 2.55189 33.3486 1.84863C34.0519 1.14537 35.0054 0.75 36 0.75L36.1855 0.754883Z" fill="white" stroke="black" stroke-width="1.5"/>
<path d="M19.5 42C19.5 41.2044 19.1839 40.4413 18.6213 39.8787C18.0587 39.3161 17.2956 39 16.5 39H15C14.2044 39 13.4413 39.3161 12.8787 39.8787C12.3161 40.4413 12 41.2044 12 42C12 42.7956 12.3161 43.5587 12.8787 44.1213C13.4413 44.6839 14.2044 45 15 45H16.5C17.2956 45 18.0587 44.6839 18.6213 44.1213C19.1839 43.5587 19.5 42.7956 19.5 42ZM55.5 39C54.7043 39 53.9413 39.3161 53.3787 39.8787C52.8161 40.4413 52.5 41.2044 52.5 42C52.5 42.7956 52.8161 43.5587 53.3787 44.1213C53.9413 44.6839 54.7043 45 55.5 45H57C57.7957 45 58.5587 44.6839 59.1213 44.1213C59.6839 43.5587 60 42.7956 60 42C60 41.2044 59.6839 40.4413 59.1213 39.8787C58.5587 39.3161 57.7957 39 57 39H55.5Z" fill="white"/>
<path d="M24 4.25C24.9946 4.25 25.9481 4.64537 26.6514 5.34863C27.3546 6.05189 27.75 7.00544 27.75 8V15.5C27.75 16.4946 27.3546 17.4481 26.6514 18.1514C25.9481 18.8546 24.9946 19.25 24 19.25C23.0054 19.25 22.0519 18.8546 21.3486 18.1514C20.6454 17.4481 20.25 16.4946 20.25 15.5V8C20.25 7.00544 20.6454 6.05189 21.3486 5.34863C22.0519 4.64537 23.0054 4.25 24 4.25ZM48 4.25C48.9946 4.25 49.9481 4.64537 50.6514 5.34863C51.3546 6.0519 51.75 7.00544 51.75 8V15.5C51.75 16.4946 51.3546 17.4481 50.6514 18.1514C49.9481 18.8546 48.9946 19.25 48 19.25C47.0054 19.25 46.0519 18.8546 45.3486 18.1514C44.6454 17.4481 44.25 16.4946 44.25 15.5V8C44.25 7.00544 44.6454 6.05189 45.3486 5.34863C46.0519 4.64537 47.0054 4.25 48 4.25Z" fill="#9639F6" stroke="black" stroke-width="1.5"/>
</svg>
