<svg width="72" height="72" viewBox="0 0 72 72" fill="none" xmlns="http://www.w3.org/2000/svg">
<path d="M67.5 36.75C67.5107 34.5199 67.3905 32.291 67.14 30.075C66.741 26.67 63.8385 24.474 60.414 24.354C55.641 24.189 47.6745 24 36 24C24.3255 24 16.359 24.1875 11.5875 24.354C8.16149 24.474 5.25899 26.67 4.85849 30.0735C4.60846 32.2901 4.48875 34.5194 4.49999 36.75V46.5C4.49999 52.5405 4.77899 57.0915 5.09699 60.315C5.46599 64.059 8.48549 66.747 12.2415 66.9525C17.0745 67.218 24.843 67.5 36.0015 67.5C47.157 67.5 54.927 67.218 59.76 66.9525C63.516 66.747 66.534 64.0575 66.903 60.315C67.221 57.0915 67.5 52.5405 67.5 46.5V36.75Z" fill="#C381ED"/>
<path d="M11.5875 49.146C8.1615 49.026 5.259 46.83 4.8585 43.4265C4.6515 41.6655 4.5 39.4545 4.5 36.75C4.5 34.0455 4.6515 31.8345 4.86 30.075C5.259 26.67 8.1615 24.474 11.5875 24.354C16.359 24.189 24.3255 24 36 24C47.6745 24 55.641 24.1875 60.414 24.354C63.8385 24.474 66.741 26.67 67.1415 30.0735C67.3485 31.833 67.5 34.0455 67.5 36.75C67.5 39.4545 67.3485 41.667 67.14 43.425C66.741 46.83 63.8385 49.026 60.414 49.146C55.641 49.311 47.6745 49.5 36 49.5C24.3255 49.5 16.359 49.3125 11.5875 49.146Z" fill="#C381ED"/>
<path d="M55.5 36.6705C55.5 37.7085 55.3395 38.5005 55.152 39.072C54.891 39.867 54.099 40.257 53.262 40.275C50.9355 40.326 45.417 40.4205 36 40.4205C26.583 40.4205 21.0645 40.326 18.738 40.275C17.901 40.257 17.109 39.867 16.848 39.072C16.6605 38.502 16.5 37.7085 16.5 36.6705C16.5 35.631 16.6605 34.839 16.848 34.2675C17.109 33.4725 17.9025 33.084 18.738 33.066C19.9919 33.0379 21.2459 33.0159 22.5 33H49.5C51.1845 33.0225 52.428 33.0465 53.2605 33.066C54.0975 33.084 54.891 33.4725 55.152 34.2675C55.3395 34.8375 55.5 35.6325 55.5 36.6705Z" fill="#C381ED"/>
<path d="M25.974 18.027C23.829 20.352 23.6955 23.739 25.8135 26.0925C26.8561 27.2471 27.929 28.374 29.031 29.472C30.321 30.7605 31.4475 31.8225 32.4105 32.688C34.7655 34.8045 38.1495 34.6725 40.476 32.526C42.4736 30.675 44.434 28.7841 46.356 26.8545C48.285 24.9326 50.1754 22.9722 52.026 20.9745C54.171 18.648 54.306 15.2625 52.188 12.909C51.1449 11.7544 50.0715 10.6275 48.969 9.52953C47.871 8.42751 46.7441 7.35464 45.5895 6.31203C43.2345 4.19553 39.8505 4.32903 37.524 6.47553C36.009 7.87353 34.053 9.73653 31.644 12.1455C29.7149 14.0675 27.8246 16.0294 25.974 18.027Z" fill="white"/>
<path d="M67.5 36.75V46.5C67.5 52.5405 67.221 57.0915 66.903 60.315C66.5355 64.059 63.516 66.747 59.76 66.9525C54.927 67.218 47.157 67.5 36 67.5C24.843 67.5 17.0745 67.218 12.24 66.9525C8.4855 66.747 5.466 64.0575 5.097 60.315C4.779 57.09 4.5 52.5405 4.5 46.5V36.75" stroke="#1A0047" stroke-width="1.5" stroke-linecap="round" stroke-linejoin="round"/>
<path d="M24.5 24.129C21.935 24.1845 13.3065 24.2475 11.5905 24.3075C8.166 24.4275 5.2605 26.622 4.8585 30.027C4.6515 31.785 4.5 33.999 4.5 36.702C4.5 39.405 4.6515 41.619 4.86 43.3785C5.259 46.7835 8.1615 48.9795 11.5875 49.098C16.359 49.2645 24.3255 49.4535 36 49.4535C47.6745 49.4535 55.641 49.2645 60.414 49.098C63.8385 48.978 66.741 46.7835 67.1415 43.3785C67.3485 41.619 67.5 39.4065 67.5 36.7035C67.5 34.0005 67.3485 31.7865 67.14 30.027C66.741 26.622 63.8355 24.426 60.411 24.3075C59.614 24.2785 49.977 24.2505 49 24.2235" stroke="#1A0047" stroke-width="1.5" stroke-linecap="round" stroke-linejoin="round"/>
<path d="M40 33C41.6845 33.0225 52.428 33.0465 53.2605 33.066C54.0975 33.084 54.891 33.4725 55.152 34.2675C55.3395 34.8375 55.5 35.6325 55.5 36.6705C55.5 37.7085 55.3395 38.5005 55.152 39.072C54.891 39.867 54.099 40.257 53.262 40.275C50.9355 40.326 45.417 40.4205 36 40.4205C26.583 40.4205 21.0645 40.326 18.738 40.275C17.901 40.257 17.109 39.867 16.848 39.072C16.6605 38.502 16.5 37.7085 16.5 36.6705C16.5 35.631 16.6605 34.839 16.848 34.2675C17.109 33.4725 17.9025 33.084 18.738 33.066C19.9919 33.0379 31.7459 33.0159 33 33" stroke="white" stroke-width="1.5" stroke-linecap="round" stroke-linejoin="round"/>
<path d="M25.974 18.027C23.829 20.352 23.6955 23.739 25.8135 26.0925C26.8561 27.2471 27.929 28.374 29.031 29.472C30.321 30.7605 31.4475 31.8225 32.4105 32.688C34.7655 34.8045 38.1495 34.6725 40.476 32.526C42.4736 30.675 44.434 28.7841 46.356 26.8545C48.285 24.9326 50.1754 22.9722 52.026 20.9745C54.171 18.648 54.306 15.2625 52.188 12.909C51.1449 11.7544 50.0715 10.6275 48.969 9.52953C47.871 8.42751 46.7441 7.35464 45.5895 6.31203C43.2345 4.19553 39.8505 4.32903 37.524 6.47553C36.009 7.87353 34.053 9.73653 31.644 12.1455C29.7149 14.0675 27.8246 16.0294 25.974 18.027Z" stroke="#1A0047" stroke-width="1.5" stroke-linecap="round" stroke-linejoin="round"/>
</svg>
