<svg width="24" height="25" viewBox="0 0 24 25" fill="none" xmlns="http://www.w3.org/2000/svg">
<path fill-rule="evenodd" clip-rule="evenodd" d="M19.7771 4.87918C20.0243 4.77517 20.2947 4.7393 20.5604 4.7753C20.8261 4.8113 21.0773 4.91785 21.2878 5.08387C21.4984 5.24989 21.6606 5.4693 21.7575 5.71927C21.8545 5.96924 21.8827 6.24062 21.8391 6.50518L19.5711 20.2622C19.3511 21.5892 17.8951 22.3502 16.6781 21.6892C15.6601 21.1362 14.1481 20.2842 12.7881 19.3952C12.1081 18.9502 10.0251 17.5252 10.2811 16.5112C10.5011 15.6442 14.0011 12.3862 16.0011 10.4492C16.7861 9.68818 16.4281 9.24918 15.5011 9.94918C13.1991 11.6872 9.50314 14.3302 8.28114 15.0742C7.20314 15.7302 6.64114 15.8422 5.96914 15.7302C4.74314 15.5262 3.60614 15.2102 2.67814 14.8252C1.42414 14.3052 1.48514 12.5812 2.67714 12.0792L19.7771 4.87918Z" fill="black"/>
</svg>
