<svg width="68" height="29" viewBox="0 0 68 29" fill="none" xmlns="http://www.w3.org/2000/svg">
<path d="M15.9968 8.0079C15.9968 5.51987 18.066 3.50293 20.6184 3.50293C23.1707 3.50293 25.2398 5.51987 25.2398 8.0079V15.5783C25.2398 15.6317 25.1954 15.6749 25.1407 15.6749H16.0959C16.0412 15.6749 15.9968 15.6317 15.9968 15.5783V8.0079Z" fill="white"/>
<path d="M4.9585 3.10365C4.9585 2.72442 5.27387 2.41699 5.66291 2.41699H13.3329C13.9598 2.41699 14.468 2.91241 14.468 3.52354V6.16191C14.468 10.8161 10.5976 14.589 5.823 14.589C5.34554 14.589 4.9585 14.2117 4.9585 13.7463V3.10365Z" fill="white"/>
<path d="M14.4678 25.897C14.4678 26.2763 14.1525 26.5837 13.7634 26.5837H6.09342C5.46648 26.5837 4.95825 26.0883 4.95825 25.4771V22.8388C4.95825 18.1846 8.82877 14.4116 13.6033 14.4116C14.0807 14.4116 14.4678 14.789 14.4678 15.2544V25.897Z" fill="white"/>
<path d="M20.6804 17.3643H20.6804C18.0937 17.3643 15.9968 19.4083 15.9968 21.9297V21.9297C15.9968 24.4512 18.0937 26.4952 20.6804 26.4952H20.6804C23.267 26.4952 25.3639 24.4512 25.3639 21.9297V21.9297C25.3639 19.4083 23.267 17.3643 20.6804 17.3643Z" fill="white"/>
<path d="M34.0721 6.326H35.6732L37.043 12.0885H37.029L38.4666 6.326H39.7335L37.9874 12.8427H36.2062L34.8435 7.32174H34.8551L33.4713 12.8427H31.6901L29.9697 6.326H31.2787L32.6883 12.0885H32.6766L34.0721 6.326ZM40.8394 10.3842C40.8394 10.6363 40.8729 10.8634 40.94 11.0654C41.0085 11.2659 41.1059 11.4368 41.2321 11.5781C41.3584 11.7193 41.5111 11.828 41.6903 11.9039C41.8711 11.9783 42.0736 12.0156 42.298 12.0156C42.4508 12.0156 42.5918 11.9982 42.7212 11.9632C42.8505 11.9267 42.9673 11.8728 43.0718 11.8014C43.1762 11.7285 43.2689 11.6389 43.3499 11.5325C43.431 11.4247 43.4995 11.3001 43.5556 11.1588H44.687C44.6185 11.4429 44.5109 11.6974 44.3644 11.9222C44.2195 12.147 44.0426 12.3384 43.8338 12.4964C43.6265 12.6528 43.3905 12.772 43.1255 12.8541C42.8607 12.9377 42.5746 12.9794 42.2677 12.9794C41.8827 12.9794 41.533 12.9156 41.2181 12.788C40.9034 12.6604 40.633 12.4804 40.407 12.248C40.181 12.0156 40.0065 11.7361 39.8834 11.4095C39.7603 11.0829 39.6987 10.7213 39.6987 10.3249C39.6987 9.92996 39.7595 9.57069 39.8811 9.24713C40.0042 8.92208 40.1772 8.64327 40.4 8.41085C40.6229 8.17848 40.8901 7.99924 41.2018 7.87315C41.5134 7.74555 41.8586 7.68175 42.2373 7.68175C42.6129 7.68175 42.9525 7.74404 43.2564 7.86859C43.5603 7.99315 43.8198 8.17013 44.0348 8.3995C44.2514 8.62736 44.4182 8.90385 44.5351 9.2289C44.6519 9.55246 44.7103 9.91396 44.7103 10.3135C44.7103 10.3727 44.7088 10.432 44.7057 10.4912C44.7041 10.5505 44.6995 10.6128 44.6916 10.6781H40.5052V9.85779H44.1003L43.5673 10.6666C43.572 10.612 43.5751 10.5565 43.5767 10.5003C43.5798 10.4426 43.5814 10.3864 43.5814 10.3317C43.5814 10.0568 43.5517 9.81445 43.4925 9.60482C43.4348 9.3937 43.3492 9.21672 43.2354 9.07396C43.1232 8.92962 42.9837 8.821 42.817 8.74808C42.6518 8.67368 42.4609 8.63647 42.2443 8.63647C42.0246 8.63647 41.8282 8.67368 41.6553 8.74808C41.4823 8.82257 41.335 8.9312 41.2134 9.07396C41.0935 9.21523 41.0008 9.38766 40.9353 9.59115C40.8714 9.79473 40.8394 10.0241 40.8394 10.2793V10.3842ZM46.4447 6.09814V9.37929L46.4376 9.38384C46.4984 9.11953 46.5841 8.88256 46.6948 8.67293C46.807 8.46181 46.941 8.28329 47.0968 8.13747C47.2542 7.99012 47.4311 7.87771 47.6275 7.80024C47.8253 7.72125 48.0389 7.68175 48.2679 7.68175C48.4767 7.68175 48.6738 7.71137 48.8593 7.77062C49.0463 7.82986 49.2185 7.91417 49.3759 8.02354C49.5332 8.13291 49.6751 8.26658 49.8013 8.42452C49.9291 8.58104 50.0366 8.7572 50.1239 8.95315C50.2127 9.14911 50.2805 9.3633 50.3272 9.59571C50.3755 9.82663 50.3997 10.0712 50.3997 10.3294C50.3997 10.5877 50.3755 10.833 50.3272 11.0654C50.2805 11.2964 50.2127 11.5105 50.1239 11.708C50.0366 11.9039 49.9291 12.0802 49.8013 12.2366C49.6751 12.3931 49.5332 12.5268 49.3759 12.6376C49.2185 12.747 49.0463 12.8313 48.8593 12.8906C48.6738 12.9499 48.4767 12.9794 48.2679 12.9794C48.0389 12.9794 47.8253 12.9399 47.6275 12.8609C47.4311 12.7835 47.2542 12.6718 47.0968 12.526C46.941 12.3786 46.807 12.1994 46.6948 11.9882C46.5841 11.7771 46.4984 11.5394 46.4376 11.2751L46.4447 11.2796V12.8427H45.2713V6.09814H46.4447ZM46.4447 10.3294C46.4447 10.5042 46.4587 10.6659 46.4868 10.8148C46.5163 10.9637 46.5584 11.0996 46.613 11.2226C46.6675 11.3457 46.7345 11.455 46.814 11.5507C46.895 11.6449 46.987 11.7247 47.0898 11.79C47.1942 11.8538 47.3096 11.9025 47.4358 11.9358C47.562 11.9692 47.6991 11.986 47.8472 11.986C48.07 11.986 48.2671 11.9503 48.4385 11.8788C48.61 11.8075 48.7533 11.7019 48.8686 11.5622C48.9855 11.4224 49.0736 11.25 49.1328 11.0449C49.192 10.8383 49.2216 10.5999 49.2216 10.3294C49.2216 10.059 49.192 9.82133 49.1328 9.61626C49.0736 9.4097 48.9863 9.23727 48.871 9.09898C48.7557 8.95928 48.6115 8.85372 48.4385 8.7823C48.2671 8.71088 48.07 8.67517 47.8472 8.67517C47.6991 8.67517 47.562 8.6919 47.4358 8.7253C47.3096 8.75877 47.1942 8.80815 47.0898 8.87344C46.987 8.93724 46.895 9.01695 46.814 9.11265C46.7345 9.20686 46.6675 9.31549 46.613 9.43853C46.5584 9.56008 46.5163 9.69522 46.4868 9.84412C46.4587 9.99301 46.4447 10.1547 46.4447 10.3294ZM50.913 8.40174V8.39039C50.913 8.04253 50.9737 7.73188 51.0953 7.45845C51.2185 7.18502 51.3961 6.95489 51.6282 6.76804C51.8605 6.57969 52.1449 6.43614 52.4815 6.33739C52.8181 6.23865 53.2014 6.18929 53.6315 6.18929C54.0367 6.18929 54.4044 6.23258 54.7348 6.31917C55.0652 6.40424 55.348 6.52575 55.5833 6.68374C55.8187 6.8402 56.0002 7.02932 56.128 7.2511C56.2557 7.47289 56.3196 7.71973 56.3196 7.99164C56.3196 8.20886 56.2791 8.40862 56.1981 8.5909C56.1171 8.77319 56.004 8.93037 55.8591 9.06252C55.7142 9.19468 55.5412 9.298 55.3402 9.37241C55.1408 9.44532 54.9218 9.48178 54.6834 9.48178V9.46587C54.9873 9.46587 55.2599 9.50158 55.5015 9.57292C55.7446 9.64435 55.9503 9.74692 56.1186 9.88057C56.2884 10.0127 56.4178 10.1745 56.5066 10.3659C56.597 10.5573 56.6422 10.773 56.6422 11.013C56.6422 11.3092 56.5744 11.5789 56.4388 11.8219C56.3049 12.0634 56.1139 12.27 55.8662 12.4417C55.6199 12.6134 55.3223 12.7463 54.9732 12.8404C54.6241 12.9331 54.2354 12.9794 53.8068 12.9794C53.3549 12.9794 52.9497 12.9271 52.5913 12.8222C52.2345 12.7159 51.9313 12.5632 51.682 12.3642C51.4343 12.1652 51.2441 11.9222 51.1117 11.6351C50.9793 11.348 50.913 11.0229 50.913 10.6598V10.6484H52.1191V10.7168C52.1191 10.8976 52.1581 11.0624 52.236 11.2113C52.3139 11.3586 52.4238 11.4847 52.5656 11.5895C52.7074 11.6943 52.8781 11.7756 53.0775 11.8333C53.277 11.8895 53.5006 11.9176 53.7484 11.9176C53.9915 11.9176 54.2159 11.8903 54.4216 11.8356C54.6288 11.7794 54.8072 11.7019 54.9568 11.6032C55.1081 11.5044 55.2257 11.3867 55.3098 11.25C55.394 11.1132 55.4361 10.9652 55.4361 10.8057C55.4361 10.5414 55.3138 10.3461 55.069 10.22C54.8244 10.0924 54.4473 10.0286 53.9377 10.0286H53.0027V9.03974H53.912C54.099 9.03974 54.2673 9.02151 54.4169 8.98505C54.568 8.9471 54.6959 8.89316 54.8003 8.82332C54.9046 8.75189 54.9849 8.66605 55.041 8.5658C55.0987 8.46554 55.1275 8.35318 55.1275 8.22861C55.1275 8.08278 55.0901 7.94986 55.0153 7.82986C54.9405 7.70986 54.8345 7.60732 54.6974 7.52225C54.5618 7.43567 54.399 7.36883 54.2088 7.32174C54.0188 7.27465 53.8084 7.2511 53.5777 7.2511C53.344 7.2511 53.136 7.27617 52.9536 7.32629C52.7728 7.37491 52.6202 7.44706 52.4955 7.54276C52.3724 7.63846 52.2789 7.75618 52.215 7.89594C52.1511 8.03569 52.1191 8.19595 52.1191 8.37672V8.40174H50.913ZM36.1384 15.4403V21.957H34.2941L31.2834 16.3676L31.2974 16.3654V21.957H30.11V15.4403H32.0946L34.965 20.7516L34.951 20.7562V15.4403H36.1384ZM38.0078 16.9327V21.957H36.8343V16.9327H38.0078ZM38.0265 15.2124V16.3791H36.8156V15.2124H38.0265ZM42.5216 16.9327H43.695V21.1641C43.695 21.5651 43.635 21.9289 43.515 22.2555C43.3966 22.5837 43.2275 22.8631 43.0078 23.094C42.7881 23.3265 42.5224 23.5057 42.2107 23.6318C41.8991 23.7578 41.5515 23.8209 41.1681 23.8209C40.9407 23.8209 40.724 23.7988 40.5183 23.7548C40.3142 23.7122 40.1248 23.65 39.9503 23.568C39.7758 23.4875 39.6177 23.3894 39.4758 23.274C39.3355 23.1601 39.2156 23.0317 39.1158 22.889C39.0161 22.7461 38.9398 22.5904 38.8867 22.4218C38.8338 22.2547 38.8073 22.0786 38.8073 21.8932H39.9784C39.9784 22.0375 40.0087 22.1704 40.0695 22.2919C40.1303 22.4135 40.2137 22.5183 40.3197 22.6064C40.4257 22.696 40.5503 22.7659 40.6937 22.8161C40.8386 22.8662 40.9944 22.8912 41.1612 22.8912C41.37 22.8912 41.5585 22.8509 41.7268 22.7705C41.8951 22.69 42.0377 22.5745 42.1546 22.4242C42.2714 22.2753 42.3619 22.0945 42.4257 21.8819C42.4896 21.6692 42.5216 21.4314 42.5216 21.1686V20.1843L42.5286 20.1797C42.4678 20.4318 42.3813 20.6582 42.2691 20.8587C42.1569 21.0578 42.0214 21.2271 41.8624 21.3668C41.705 21.5066 41.5266 21.6137 41.3271 21.6881C41.1292 21.761 40.9119 21.7975 40.675 21.7975C40.4708 21.7975 40.2768 21.7694 40.0929 21.7132C39.909 21.657 39.7392 21.5773 39.5833 21.4739C39.4275 21.3691 39.2865 21.2423 39.1603 21.0934C39.0356 20.9446 38.9288 20.7774 38.84 20.5921C38.7528 20.4053 38.6849 20.2025 38.6367 19.9838C38.5899 19.7635 38.5665 19.5311 38.5665 19.2865C38.5665 19.0419 38.5899 18.8103 38.6367 18.5915C38.6849 18.3728 38.7528 18.1715 38.84 17.9877C38.9288 17.804 39.0356 17.6383 39.1603 17.491C39.2865 17.3437 39.4275 17.2191 39.5833 17.1173C39.7392 17.014 39.909 16.935 40.0929 16.8803C40.2768 16.8242 40.4708 16.796 40.675 16.796C40.9119 16.796 41.1292 16.8325 41.3271 16.9054C41.5266 16.9783 41.705 17.0839 41.8624 17.2221C42.0214 17.3588 42.1569 17.526 42.2691 17.7234C42.3813 17.9209 42.4678 18.1449 42.5286 18.3956L42.5216 18.391V16.9327ZM42.5216 19.2865C42.5216 19.127 42.5068 18.9797 42.4771 18.8445C42.4491 18.7078 42.4079 18.584 42.3533 18.473C42.2987 18.3622 42.231 18.2642 42.1499 18.1791C42.0689 18.094 41.9754 18.0227 41.8694 17.9649C41.7635 17.9072 41.6458 17.8639 41.5165 17.835C41.3887 17.8047 41.25 17.7895 41.1004 17.7895C40.8807 17.7895 40.6866 17.8214 40.5183 17.8852C40.35 17.9475 40.2082 18.0417 40.0929 18.1677C39.9776 18.2938 39.8903 18.4502 39.8311 18.6371C39.7735 18.8224 39.7446 19.0389 39.7446 19.2865C39.7446 19.5341 39.7742 19.7521 39.8335 19.9404C39.8927 20.1288 39.9792 20.2876 40.0929 20.4167C40.2082 20.5443 40.35 20.6407 40.5183 20.706C40.6866 20.7714 40.8807 20.804 41.1004 20.804C41.25 20.804 41.3887 20.7889 41.5165 20.7585C41.6458 20.7266 41.7627 20.6817 41.8671 20.624C41.9731 20.5648 42.0666 20.4918 42.1476 20.4053C42.2302 20.3172 42.2987 20.2169 42.3533 20.1045C42.4079 19.9921 42.4491 19.8675 42.4771 19.7308C42.5068 19.5941 42.5216 19.446 42.5216 19.2865ZM45.3958 19.4985C45.3958 19.7506 45.4293 19.9777 45.4963 20.1797C45.5648 20.3802 45.6623 20.5511 45.7885 20.6924C45.9147 20.8336 46.0674 20.9423 46.2466 21.0182C46.4273 21.0926 46.63 21.1298 46.8544 21.1298C47.007 21.1298 47.1481 21.1124 47.2774 21.0775C47.4068 21.041 47.5237 20.9871 47.6281 20.9157C47.7325 20.8427 47.8252 20.7532 47.9063 20.6468C47.9873 20.539 48.0559 20.4144 48.112 20.2731H49.2433C49.1747 20.5572 49.0672 20.8117 48.9207 21.0365C48.7758 21.2612 48.5989 21.4527 48.3901 21.6107C48.1828 21.7671 47.9467 21.8863 47.6819 21.9684C47.4169 22.052 47.131 22.0937 46.824 22.0937C46.4391 22.0937 46.0892 22.0299 45.7745 21.9023C45.4596 21.7747 45.1893 21.5947 44.9633 21.3623C44.7374 21.1298 44.5629 20.8504 44.4397 20.5237C44.3166 20.1972 44.2551 19.8356 44.2551 19.4391C44.2551 19.0442 44.3159 18.685 44.4374 18.3614C44.5605 18.0364 44.7335 17.7576 44.9563 17.5251C45.1791 17.2927 45.4464 17.1135 45.7581 16.9875C46.0697 16.8598 46.4149 16.796 46.7936 16.796C47.1691 16.796 47.5089 16.8583 47.8128 16.9828C48.1166 17.1075 48.3761 17.2844 48.5911 17.5138C48.8078 17.7416 48.9745 18.0181 49.0913 18.3432C49.2082 18.6667 49.2667 19.0282 49.2667 19.4278C49.2667 19.487 49.2651 19.5463 49.262 19.6055C49.2604 19.6648 49.2557 19.7271 49.248 19.7924H45.0615V18.9721H48.6566L48.1236 19.7809C48.1283 19.7262 48.1314 19.6708 48.133 19.6146C48.1361 19.5569 48.1376 19.5007 48.1376 19.446C48.1376 19.1711 48.108 18.9287 48.0488 18.7191C47.9912 18.508 47.9055 18.331 47.7917 18.1882C47.6795 18.0439 47.54 17.9353 47.3733 17.8624C47.2081 17.788 47.0172 17.7508 46.8006 17.7508C46.5809 17.7508 46.3845 17.788 46.2115 17.8624C46.0386 17.9369 45.8913 18.0455 45.7698 18.1882C45.6498 18.3295 45.557 18.5019 45.4916 18.7054C45.4277 18.909 45.3958 19.1384 45.3958 19.3936V19.4985ZM51.0009 19.5645V21.957H49.8275V16.9327H51.0009V18.6325L50.994 18.6371C51.0454 18.3743 51.1217 18.1374 51.223 17.9262C51.3259 17.715 51.4544 17.5358 51.6087 17.3884C51.763 17.2411 51.9438 17.1287 52.151 17.0512C52.3598 16.9722 52.5966 16.9327 52.8616 16.9327H53.1304V18.0151H52.7447C52.4128 18.0151 52.1347 18.0462 51.9103 18.1085C51.6874 18.1708 51.509 18.2657 51.3749 18.3933C51.2409 18.5209 51.1451 18.6819 51.0875 18.8764C51.0298 19.0708 51.0009 19.3002 51.0009 19.5645ZM54.8542 16.9327V21.957H53.6807V16.9327H54.8542ZM54.8729 15.2124V16.3791H53.662V15.2124H54.8729ZM55.5369 18.7282C55.5369 18.432 55.593 18.1647 55.7052 17.9262C55.8174 17.6877 55.9771 17.485 56.1843 17.3178C56.3932 17.1492 56.6464 17.0201 56.944 16.9305C57.2432 16.8408 57.5783 16.796 57.9492 16.796C58.3372 16.796 58.6839 16.8454 58.9893 16.9441C59.2963 17.0429 59.5559 17.1857 59.7678 17.3725C59.9797 17.5594 60.1418 17.788 60.254 18.0583C60.3677 18.3272 60.4245 18.6334 60.4245 18.9766V21.957H59.2511V20.6126H59.2582C59.2192 20.7661 59.1654 20.9089 59.0969 21.041C59.0299 21.1732 58.9496 21.2947 58.8561 21.4056C58.7626 21.515 58.6566 21.6122 58.5382 21.6972C58.4198 21.7823 58.2905 21.8544 58.1502 21.9137C58.0115 21.973 57.8627 22.0177 57.7037 22.0481C57.5448 22.0786 57.3773 22.0937 57.2012 22.0937C56.9285 22.0937 56.6799 22.058 56.4555 21.9867C56.2327 21.9152 56.0418 21.8142 55.8828 21.6836C55.7239 21.5514 55.6008 21.3934 55.5135 21.2096C55.4278 21.0243 55.3849 20.8192 55.3849 20.5944C55.3849 20.3605 55.4325 20.1509 55.5275 19.9655C55.6226 19.7802 55.7589 19.623 55.9365 19.4938C56.1158 19.3632 56.3332 19.2637 56.5888 19.1954C56.8459 19.127 57.1365 19.0928 57.4606 19.0928H59.2862V19.8949H57.5284C57.3679 19.8949 57.2268 19.9085 57.1053 19.9359C56.9854 19.9617 56.884 20.0012 56.8014 20.0544C56.7204 20.1061 56.6589 20.1706 56.6168 20.2481C56.5747 20.3255 56.5536 20.4152 56.5536 20.5169C56.5536 20.6232 56.5763 20.7182 56.6215 20.8017C56.6682 20.8853 56.736 20.9552 56.8248 21.0114C56.9136 21.0676 57.0235 21.1109 57.1544 21.1413C57.2853 21.1701 57.4357 21.1845 57.6055 21.1845C57.7645 21.1845 57.9157 21.1717 58.059 21.1458C58.2024 21.1185 58.3348 21.0813 58.4564 21.0341C58.5779 20.9856 58.6878 20.9278 58.786 20.861C58.8842 20.7926 58.9676 20.716 59.0361 20.6309C59.1062 20.5458 59.1592 20.4539 59.195 20.3551C59.2324 20.2549 59.2511 20.1493 59.2511 20.0384V18.9766C59.2511 18.7867 59.2208 18.6166 59.16 18.4662C59.0992 18.3144 59.0112 18.1852 58.8958 18.0789C58.7821 17.9726 58.6434 17.8913 58.4797 17.835C58.3161 17.7788 58.1315 17.7508 57.9258 17.7508C57.7154 17.7508 57.5339 17.7743 57.3811 17.8214C57.2285 17.8669 57.1022 17.9323 57.0024 18.0173C56.9027 18.1009 56.8287 18.2034 56.7804 18.325C56.7321 18.4449 56.7079 18.5794 56.7079 18.7282H55.5369Z" fill="white"/>
</svg>
