<svg width="24" height="25" viewBox="0 0 24 25" fill="none" xmlns="http://www.w3.org/2000/svg">
<path fill-rule="evenodd" clip-rule="evenodd" d="M13.1445 10.3256L19.0446 4.44922H21L20.9921 4.45733L14.0135 11.4101L20.4026 19.3795C20.4798 19.4754 20.528 19.5892 20.5421 19.7087C20.5562 19.8283 20.5358 19.9492 20.4829 20.0587C20.43 20.1683 20.3467 20.2624 20.2416 20.3311C20.1366 20.3998 20.0137 20.4406 19.8861 20.4492H15.8857C15.7843 20.4427 15.6856 20.4156 15.5963 20.3699C15.507 20.3242 15.4293 20.2609 15.3684 20.1844L10.8727 14.5766L5.00724 20.4492H3L10.0038 13.4921L3.61465 5.52267C3.53489 5.42341 3.48619 5.30521 3.47401 5.18135C3.46183 5.05749 3.48667 4.9329 3.54573 4.82158C3.60478 4.71027 3.69572 4.61665 3.8083 4.55126C3.92088 4.48587 4.05064 4.45129 4.18299 4.45143H8.08051C8.30423 4.45143 8.51461 4.55029 8.64884 4.71777L13.1445 10.3256ZM12.5456 11.8011C12.5259 11.7792 12.5075 11.7563 12.4906 11.7325L7.72569 5.78901H5.61012L16.2916 19.1131H18.4079L12.5456 11.8011Z" fill="black"/>
</svg>
